<?xml version="1.0" encoding="UTF-8" standalone="no"?>
<!DOCTYPE svg PUBLIC "-//W3C//DTD SVG 1.1//EN"
 "http://www.w3.org/Graphics/SVG/1.1/DTD/svg11.dtd">
<!-- Generated by graphviz version 2.47.3 (20210619.1520)
 -->
<!-- Title: dependencies Pages: 1 -->
<svg width="316pt" height="247pt"
 viewBox="0.00 0.00 316.00 246.80" xmlns="http://www.w3.org/2000/svg" xmlns:xlink="http://www.w3.org/1999/xlink">
<g id="graph0" class="graph" transform="scale(1 1) rotate(0) translate(4 242.8)">
<title>dependencies</title>
<polygon fill="white" stroke="transparent" points="-4,4 -4,-242.8 312,-242.8 312,4 -4,4"/>
<text text-anchor="middle" x="154" y="-8.2" font-family="sans-serif" font-size="14.00">dependencies</text>
<g id="clust1" class="cluster">
<title>cluster_SharedModule</title>
<polygon fill="none" stroke="black" stroke-dasharray="1,5" points="8,-32.8 8,-230.8 300,-230.8 300,-32.8 8,-32.8"/>
</g>
<g id="clust2" class="cluster">
<title>cluster_SharedModule_declarations</title>
<polygon fill="none" stroke="black" points="16,-40.8 16,-92.8 292,-92.8 292,-40.8 16,-40.8"/>
</g>
<g id="clust6" class="cluster">
<title>cluster_SharedModule_exports</title>
<polygon fill="none" stroke="black" points="85,-170.8 85,-222.8 223,-222.8 223,-170.8 85,-170.8"/>
</g>
<!-- FooterComponent -->
<g id="node1" class="node">
<title>FooterComponent</title>
<polygon fill="#ffffb3" stroke="black" points="283.88,-84.8 166.12,-84.8 166.12,-48.8 283.88,-48.8 283.88,-84.8"/>
<text text-anchor="middle" x="225" y="-62.6" font-family="Times,serif" font-size="14.00">FooterComponent</text>
</g>
<!-- SharedModule -->
<g id="node3" class="node">
<title>SharedModule</title>
<polygon fill="#8dd3c7" stroke="black" points="203.42,-149.8 200.42,-153.8 179.42,-153.8 176.42,-149.8 104.58,-149.8 104.58,-113.8 203.42,-113.8 203.42,-149.8"/>
<text text-anchor="middle" x="154" y="-127.6" font-family="Times,serif" font-size="14.00">SharedModule</text>
</g>
<!-- FooterComponent&#45;&gt;SharedModule -->
<g id="edge1" class="edge">
<title>FooterComponent&#45;&gt;SharedModule</title>
<path fill="none" stroke="black" d="M184.64,-84.91C184.64,-84.91 184.64,-103.79 184.64,-103.79"/>
<polygon fill="black" stroke="black" points="181.14,-103.79 184.64,-113.79 188.14,-103.79 181.14,-103.79"/>
</g>
<!-- SidebarComponent -->
<g id="node2" class="node">
<title>SidebarComponent</title>
<polygon fill="#ffffb3" stroke="black" points="148.1,-84.8 23.9,-84.8 23.9,-48.8 148.1,-48.8 148.1,-84.8"/>
<text text-anchor="middle" x="86" y="-62.6" font-family="Times,serif" font-size="14.00">SidebarComponent</text>
</g>
<!-- SidebarComponent&#45;&gt;SharedModule -->
<g id="edge2" class="edge">
<title>SidebarComponent&#45;&gt;SharedModule</title>
<path fill="none" stroke="black" d="M126.42,-84.91C126.42,-84.91 126.42,-103.79 126.42,-103.79"/>
<polygon fill="black" stroke="black" points="122.92,-103.79 126.42,-113.79 129.92,-103.79 122.92,-103.79"/>
</g>
<!-- FooterComponent  -->
<g id="node4" class="node">
<title>FooterComponent </title>
<polygon fill="#fb8072" stroke="black" points="214.88,-214.8 93.12,-214.8 93.12,-178.8 214.88,-178.8 214.88,-214.8"/>
<text text-anchor="middle" x="154" y="-192.6" font-family="Times,serif" font-size="14.00">FooterComponent </text>
</g>
<!-- SharedModule&#45;&gt;FooterComponent  -->
<g id="edge3" class="edge">
<title>SharedModule&#45;&gt;FooterComponent </title>
<path fill="none" stroke="black" stroke-dasharray="5,2" d="M154,-149.91C154,-149.91 154,-168.79 154,-168.79"/>
<polygon fill="black" stroke="black" points="150.5,-168.79 154,-178.79 157.5,-168.79 150.5,-168.79"/>
</g>
</g>
</svg>
