<?xml version="1.0" encoding="UTF-8" standalone="no"?>
<!DOCTYPE svg PUBLIC "-//W3C//DTD SVG 1.1//EN"
 "http://www.w3.org/Graphics/SVG/1.1/DTD/svg11.dtd">
<!-- Generated by graphviz version 3.0.0 (20220226.1711)
 -->
<!-- Title: dependencies Pages: 1 -->
<svg width="320pt" height="174pt"
 viewBox="0.00 0.00 320.00 173.80" xmlns="http://www.w3.org/2000/svg" xmlns:xlink="http://www.w3.org/1999/xlink">
<g id="graph0" class="graph" transform="scale(1 1) rotate(0) translate(4 169.8)">
<title>dependencies</title>
<polygon fill="white" stroke="transparent" points="-4,4 -4,-169.8 316,-169.8 316,4 -4,4"/>
<text text-anchor="middle" x="156" y="-8.2" font-family="sans-serif" font-size="14.00">dependencies</text>
<g id="clust1" class="cluster">
<title>cluster_AuthModule</title>
<polygon fill="none" stroke="black" stroke-dasharray="1,5" points="8,-32.8 8,-157.8 304,-157.8 304,-32.8 8,-32.8"/>
</g>
<g id="clust2" class="cluster">
<title>cluster_AuthModule_declarations</title>
<polygon fill="none" stroke="black" points="16,-40.8 16,-92.8 296,-92.8 296,-40.8 16,-40.8"/>
</g>
<!-- CallbackComponent -->
<g id="node1" class="node">
<title>CallbackComponent</title>
<polygon fill="#ffffb3" stroke="black" points="287.59,-84.8 156.41,-84.8 156.41,-48.8 287.59,-48.8 287.59,-84.8"/>
<text text-anchor="middle" x="222" y="-62.6" font-family="Times,serif" font-size="14.00">CallbackComponent</text>
</g>
<!-- AuthModule -->
<g id="node3" class="node">
<title>AuthModule</title>
<polygon fill="#8dd3c7" stroke="black" points="194.55,-149.8 191.55,-153.8 170.55,-153.8 167.55,-149.8 107.45,-149.8 107.45,-113.8 194.55,-113.8 194.55,-149.8"/>
<text text-anchor="middle" x="151" y="-127.6" font-family="Times,serif" font-size="14.00">AuthModule</text>
</g>
<!-- CallbackComponent&#45;&gt;AuthModule -->
<g id="edge1" class="edge">
<title>CallbackComponent&#45;&gt;AuthModule</title>
<path fill="none" stroke="black" d="M175.62,-84.91C175.62,-84.91 175.62,-103.79 175.62,-103.79"/>
<polygon fill="black" stroke="black" points="172.12,-103.79 175.62,-113.79 179.12,-103.79 172.12,-103.79"/>
</g>
<!-- LoginComponent -->
<g id="node2" class="node">
<title>LoginComponent</title>
<polygon fill="#ffffb3" stroke="black" points="138.27,-84.8 23.73,-84.8 23.73,-48.8 138.27,-48.8 138.27,-84.8"/>
<text text-anchor="middle" x="81" y="-62.6" font-family="Times,serif" font-size="14.00">LoginComponent</text>
</g>
<!-- LoginComponent&#45;&gt;AuthModule -->
<g id="edge2" class="edge">
<title>LoginComponent&#45;&gt;AuthModule</title>
<path fill="none" stroke="black" d="M122.81,-84.91C122.81,-84.91 122.81,-103.79 122.81,-103.79"/>
<polygon fill="black" stroke="black" points="119.31,-103.79 122.81,-113.79 126.31,-103.79 119.31,-103.79"/>
</g>
</g>
</svg>
