<?xml version="1.0" encoding="UTF-8" standalone="no"?>
<!DOCTYPE svg PUBLIC "-//W3C//DTD SVG 1.1//EN"
 "http://www.w3.org/Graphics/SVG/1.1/DTD/svg11.dtd">
<!-- Generated by graphviz version 5.0.0 (20220707.1540)
 -->
<!-- Title: dependencies Pages: 1 -->
<svg width="3918pt" height="318pt"
 viewBox="0.00 0.00 3918.00 317.80" xmlns="http://www.w3.org/2000/svg" xmlns:xlink="http://www.w3.org/1999/xlink">
<g id="graph0" class="graph" transform="scale(1 1) rotate(0) translate(4 313.8)">
<title>dependencies</title>
<polygon fill="white" stroke="transparent" points="-4,4 -4,-313.8 3914,-313.8 3914,4 -4,4"/>
<text text-anchor="middle" x="1955" y="-8.2" font-family="sans-serif" font-size="14.00">dependencies</text>
<g id="clust1" class="cluster">
<title>cluster_AuthModule</title>
<polygon fill="none" stroke="black" stroke-dasharray="1,5" points="8,-32.8 8,-157.8 282,-157.8 282,-32.8 8,-32.8"/>
</g>
<g id="clust2" class="cluster">
<title>cluster_AuthModule_declarations</title>
<polygon fill="none" stroke="black" points="16,-40.8 16,-92.8 274,-92.8 274,-40.8 16,-40.8"/>
</g>
<g id="clust9" class="cluster">
<title>cluster_ComponentsModule</title>
<polygon fill="none" stroke="black" stroke-dasharray="1,5" points="290,-32.8 290,-233.8 1160,-233.8 1160,-32.8 290,-32.8"/>
</g>
<g id="clust10" class="cluster">
<title>cluster_ComponentsModule_declarations</title>
<polygon fill="none" stroke="black" points="298,-40.8 298,-92.8 1152,-92.8 1152,-40.8 298,-40.8"/>
</g>
<g id="clust18" class="cluster">
<title>cluster_ComponentsModule_exports</title>
<polygon fill="none" stroke="black" points="371,-173.8 371,-225.8 1076,-225.8 1076,-173.8 371,-173.8"/>
</g>
<g id="clust21" class="cluster">
<title>cluster_DefaultModule</title>
<polygon fill="none" stroke="black" stroke-dasharray="1,5" points="1168,-32.8 1168,-233.8 1326,-233.8 1326,-32.8 1168,-32.8"/>
</g>
<g id="clust22" class="cluster">
<title>cluster_DefaultModule_declarations</title>
<polygon fill="none" stroke="black" points="1177,-40.8 1177,-92.8 1317,-92.8 1317,-40.8 1177,-40.8"/>
</g>
<g id="clust25" class="cluster">
<title>cluster_DefaultModule_exports</title>
<polygon fill="none" stroke="black" points="1176,-173.8 1176,-225.8 1318,-225.8 1318,-173.8 1176,-173.8"/>
</g>
<g id="clust28" class="cluster">
<title>cluster_FranchiseeModule</title>
<polygon fill="none" stroke="black" stroke-dasharray="1,5" points="1334,-32.8 1334,-157.8 2155,-157.8 2155,-32.8 1334,-32.8"/>
</g>
<g id="clust29" class="cluster">
<title>cluster_FranchiseeModule_declarations</title>
<polygon fill="none" stroke="black" points="1342,-40.8 1342,-92.8 1698,-92.8 1698,-40.8 1342,-40.8"/>
</g>
<g id="clust35" class="cluster">
<title>cluster_FranchiseeModule_providers</title>
<polygon fill="none" stroke="black" points="1706,-40.8 1706,-92.8 2147,-92.8 2147,-40.8 1706,-40.8"/>
</g>
<g id="clust36" class="cluster">
<title>cluster_HomeModule</title>
<polygon fill="none" stroke="black" stroke-dasharray="1,5" points="3750,-32.8 3750,-233.8 3902,-233.8 3902,-32.8 3750,-32.8"/>
</g>
<g id="clust37" class="cluster">
<title>cluster_HomeModule_declarations</title>
<polygon fill="none" stroke="black" points="3760,-40.8 3760,-92.8 3892,-92.8 3892,-40.8 3760,-40.8"/>
</g>
<g id="clust40" class="cluster">
<title>cluster_HomeModule_exports</title>
<polygon fill="none" stroke="black" points="3758,-173.8 3758,-225.8 3894,-225.8 3894,-173.8 3758,-173.8"/>
</g>
<g id="clust43" class="cluster">
<title>cluster_LayoutsModule</title>
<polygon fill="none" stroke="black" stroke-dasharray="1,5" points="1334,-173.8 1334,-301.8 1472,-301.8 1472,-173.8 1334,-173.8"/>
</g>
<g id="clust46" class="cluster">
<title>cluster_LayoutsModule_exports</title>
<polygon fill="none" stroke="black" points="1342,-241.8 1342,-293.8 1464,-293.8 1464,-241.8 1342,-241.8"/>
</g>
<g id="clust49" class="cluster">
<title>cluster_PrincipalModule</title>
<polygon fill="none" stroke="black" stroke-dasharray="1,5" points="1480,-165.8 1480,-293.8 1828,-293.8 1828,-165.8 1480,-165.8"/>
</g>
<g id="clust50" class="cluster">
<title>cluster_PrincipalModule_declarations</title>
<polygon fill="none" stroke="black" points="1488,-173.8 1488,-225.8 1820,-225.8 1820,-173.8 1488,-173.8"/>
</g>
<g id="clust57" class="cluster">
<title>cluster_ProfileModule</title>
<polygon fill="none" stroke="black" stroke-dasharray="1,5" points="2163,-32.8 2163,-157.8 2471,-157.8 2471,-32.8 2163,-32.8"/>
</g>
<g id="clust58" class="cluster">
<title>cluster_ProfileModule_declarations</title>
<polygon fill="none" stroke="black" points="2327,-40.8 2327,-92.8 2463,-92.8 2463,-40.8 2327,-40.8"/>
</g>
<g id="clust63" class="cluster">
<title>cluster_ProfileModule_providers</title>
<polygon fill="none" stroke="black" points="2171,-40.8 2171,-92.8 2319,-92.8 2319,-40.8 2171,-40.8"/>
</g>
<g id="clust64" class="cluster">
<title>cluster_RecipeManagementModule</title>
<polygon fill="none" stroke="black" stroke-dasharray="1,5" points="2479,-32.8 2479,-157.8 3440,-157.8 3440,-32.8 2479,-32.8"/>
</g>
<g id="clust65" class="cluster">
<title>cluster_RecipeManagementModule_declarations</title>
<polygon fill="none" stroke="black" points="2645,-40.8 2645,-92.8 3432,-92.8 3432,-40.8 2645,-40.8"/>
</g>
<g id="clust74" class="cluster">
<title>cluster_RecipeManagementModule_providers</title>
<polygon fill="none" stroke="black" points="2487,-40.8 2487,-92.8 2637,-92.8 2637,-40.8 2487,-40.8"/>
</g>
<g id="clust75" class="cluster">
<title>cluster_UsersModule</title>
<polygon fill="none" stroke="black" stroke-dasharray="1,5" points="3448,-32.8 3448,-157.8 3742,-157.8 3742,-32.8 3448,-32.8"/>
</g>
<g id="clust76" class="cluster">
<title>cluster_UsersModule_declarations</title>
<polygon fill="none" stroke="black" points="3604,-40.8 3604,-92.8 3734,-92.8 3734,-40.8 3604,-40.8"/>
</g>
<g id="clust81" class="cluster">
<title>cluster_UsersModule_providers</title>
<polygon fill="none" stroke="black" points="3456,-40.8 3456,-92.8 3596,-92.8 3596,-40.8 3456,-40.8"/>
</g>
<!-- AuthComponent -->
<g id="node1" class="node">
<title>AuthComponent</title>
<polygon fill="#ffffb3" stroke="black" points="265.83,-84.8 156.17,-84.8 156.17,-48.8 265.83,-48.8 265.83,-84.8"/>
<text text-anchor="middle" x="211" y="-62.6" font-family="Times,serif" font-size="14.00">AuthComponent</text>
</g>
<!-- AuthModule -->
<g id="node3" class="node">
<title>AuthModule</title>
<polygon fill="#8dd3c7" stroke="black" points="189.55,-149.8 186.55,-153.8 165.55,-153.8 162.55,-149.8 102.45,-149.8 102.45,-113.8 189.55,-113.8 189.55,-149.8"/>
<text text-anchor="middle" x="146" y="-127.6" font-family="Times,serif" font-size="14.00">AuthModule</text>
</g>
<!-- AuthComponent&#45;&gt;AuthModule -->
<g id="edge1" class="edge">
<title>AuthComponent&#45;&gt;AuthModule</title>
<path fill="none" stroke="black" d="M173.06,-84.91C173.06,-84.91 173.06,-103.79 173.06,-103.79"/>
<polygon fill="black" stroke="black" points="169.56,-103.79 173.06,-113.79 176.56,-103.79 169.56,-103.79"/>
</g>
<!-- LoginComponent -->
<g id="node2" class="node">
<title>LoginComponent</title>
<polygon fill="#ffffb3" stroke="black" points="138.27,-84.8 23.73,-84.8 23.73,-48.8 138.27,-48.8 138.27,-84.8"/>
<text text-anchor="middle" x="81" y="-62.6" font-family="Times,serif" font-size="14.00">LoginComponent</text>
</g>
<!-- LoginComponent&#45;&gt;AuthModule -->
<g id="edge2" class="edge">
<title>LoginComponent&#45;&gt;AuthModule</title>
<path fill="none" stroke="black" d="M120.31,-84.91C120.31,-84.91 120.31,-103.79 120.31,-103.79"/>
<polygon fill="black" stroke="black" points="116.81,-103.79 120.31,-113.79 123.81,-103.79 116.81,-103.79"/>
</g>
<!-- FooterComponent -->
<g id="node4" class="node">
<title>FooterComponent</title>
<polygon fill="#ffffb3" stroke="black" points="1143.88,-84.8 1026.12,-84.8 1026.12,-48.8 1143.88,-48.8 1143.88,-84.8"/>
<text text-anchor="middle" x="1085" y="-62.6" font-family="Times,serif" font-size="14.00">FooterComponent</text>
</g>
<!-- ComponentsModule -->
<g id="node10" class="node">
<title>ComponentsModule</title>
<polygon fill="#8dd3c7" stroke="black" points="780.33,-149.8 777.33,-153.8 756.33,-153.8 753.33,-149.8 649.67,-149.8 649.67,-113.8 780.33,-113.8 780.33,-149.8"/>
<text text-anchor="middle" x="715" y="-127.6" font-family="Times,serif" font-size="14.00">ComponentsModule</text>
</g>
<!-- FooterComponent&#45;&gt;ComponentsModule -->
<g id="edge3" class="edge">
<title>FooterComponent&#45;&gt;ComponentsModule</title>
<path fill="none" stroke="black" d="M1046.88,-85.07C1046.88,-103.36 1046.88,-128.8 1046.88,-128.8 1046.88,-128.8 790.17,-128.8 790.17,-128.8"/>
<polygon fill="black" stroke="black" points="790.17,-125.3 780.17,-128.8 790.17,-132.3 790.17,-125.3"/>
</g>
<!-- LoadingComponent -->
<g id="node5" class="node">
<title>LoadingComponent</title>
<polygon fill="#ffffb3" stroke="black" points="1007.99,-84.8 880.01,-84.8 880.01,-48.8 1007.99,-48.8 1007.99,-84.8"/>
<text text-anchor="middle" x="944" y="-62.6" font-family="Times,serif" font-size="14.00">LoadingComponent</text>
</g>
<!-- LoadingComponent&#45;&gt;ComponentsModule -->
<g id="edge4" class="edge">
<title>LoadingComponent&#45;&gt;ComponentsModule</title>
<path fill="none" stroke="black" d="M904.38,-84.81C904.38,-100.85 904.38,-121.8 904.38,-121.8 904.38,-121.8 790.17,-121.8 790.17,-121.8"/>
<polygon fill="black" stroke="black" points="790.17,-118.3 780.17,-121.8 790.17,-125.3 790.17,-118.3"/>
</g>
<!-- ServerErrorComponent -->
<g id="node6" class="node">
<title>ServerErrorComponent</title>
<polygon fill="#ffffb3" stroke="black" points="861.91,-84.8 714.09,-84.8 714.09,-48.8 861.91,-48.8 861.91,-84.8"/>
<text text-anchor="middle" x="788" y="-62.6" font-family="Times,serif" font-size="14.00">ServerErrorComponent</text>
</g>
<!-- ServerErrorComponent&#45;&gt;ComponentsModule -->
<g id="edge5" class="edge">
<title>ServerErrorComponent&#45;&gt;ComponentsModule</title>
<path fill="none" stroke="black" d="M747.23,-84.91C747.23,-84.91 747.23,-103.79 747.23,-103.79"/>
<polygon fill="black" stroke="black" points="743.73,-103.79 747.23,-113.79 750.73,-103.79 743.73,-103.79"/>
</g>
<!-- SidebarComponent -->
<g id="node7" class="node">
<title>SidebarComponent</title>
<polygon fill="#ffffb3" stroke="black" points="696.1,-84.8 571.9,-84.8 571.9,-48.8 696.1,-48.8 696.1,-84.8"/>
<text text-anchor="middle" x="634" y="-62.6" font-family="Times,serif" font-size="14.00">SidebarComponent</text>
</g>
<!-- SidebarComponent&#45;&gt;ComponentsModule -->
<g id="edge6" class="edge">
<title>SidebarComponent&#45;&gt;ComponentsModule</title>
<path fill="none" stroke="black" d="M672.94,-84.91C672.94,-84.91 672.94,-103.79 672.94,-103.79"/>
<polygon fill="black" stroke="black" points="669.44,-103.79 672.94,-113.79 676.44,-103.79 669.44,-103.79"/>
</g>
<!-- TitleComponent -->
<g id="node8" class="node">
<title>TitleComponent</title>
<polygon fill="#ffffb3" stroke="black" points="553.77,-84.8 446.23,-84.8 446.23,-48.8 553.77,-48.8 553.77,-84.8"/>
<text text-anchor="middle" x="500" y="-62.6" font-family="Times,serif" font-size="14.00">TitleComponent</text>
</g>
<!-- TitleComponent&#45;&gt;ComponentsModule -->
<g id="edge7" class="edge">
<title>TitleComponent&#45;&gt;ComponentsModule</title>
<path fill="none" stroke="black" d="M538.12,-84.81C538.12,-100.85 538.12,-121.8 538.12,-121.8 538.12,-121.8 639.64,-121.8 639.64,-121.8"/>
<polygon fill="black" stroke="black" points="639.64,-125.3 649.64,-121.8 639.64,-118.3 639.64,-125.3"/>
</g>
<!-- TopbarComponent -->
<g id="node9" class="node">
<title>TopbarComponent</title>
<polygon fill="#ffffb3" stroke="black" points="427.76,-84.8 306.24,-84.8 306.24,-48.8 427.76,-48.8 427.76,-84.8"/>
<text text-anchor="middle" x="367" y="-62.6" font-family="Times,serif" font-size="14.00">TopbarComponent</text>
</g>
<!-- TopbarComponent&#45;&gt;ComponentsModule -->
<g id="edge8" class="edge">
<title>TopbarComponent&#45;&gt;ComponentsModule</title>
<path fill="none" stroke="black" d="M403.62,-85.07C403.62,-103.36 403.62,-128.8 403.62,-128.8 403.62,-128.8 639.73,-128.8 639.73,-128.8"/>
<polygon fill="black" stroke="black" points="639.73,-132.3 649.73,-128.8 639.73,-125.3 639.73,-132.3"/>
</g>
<!-- FooterComponent  -->
<g id="node11" class="node">
<title>FooterComponent </title>
<polygon fill="#fb8072" stroke="black" points="1067.88,-217.8 946.12,-217.8 946.12,-181.8 1067.88,-181.8 1067.88,-217.8"/>
<text text-anchor="middle" x="1007" y="-195.6" font-family="Times,serif" font-size="14.00">FooterComponent </text>
</g>
<!-- ComponentsModule&#45;&gt;FooterComponent  -->
<g id="edge9" class="edge">
<title>ComponentsModule&#45;&gt;FooterComponent </title>
<path fill="none" stroke="black" stroke-dasharray="5,2" d="M780.48,-135.8C858.12,-135.8 977.15,-135.8 977.15,-135.8 977.15,-135.8 977.15,-171.63 977.15,-171.63"/>
<polygon fill="black" stroke="black" points="973.65,-171.63 977.15,-181.63 980.65,-171.63 973.65,-171.63"/>
</g>
<!-- LoadingComponent  -->
<g id="node12" class="node">
<title>LoadingComponent </title>
<polygon fill="#fb8072" stroke="black" points="928.99,-217.8 797.01,-217.8 797.01,-181.8 928.99,-181.8 928.99,-217.8"/>
<text text-anchor="middle" x="863" y="-195.6" font-family="Times,serif" font-size="14.00">LoadingComponent </text>
</g>
<!-- ComponentsModule&#45;&gt;LoadingComponent  -->
<g id="edge10" class="edge">
<title>ComponentsModule&#45;&gt;LoadingComponent </title>
<path fill="none" stroke="black" stroke-dasharray="5,2" d="M780.27,-142.8C805.97,-142.8 829.48,-142.8 829.48,-142.8 829.48,-142.8 829.48,-171.76 829.48,-171.76"/>
<polygon fill="black" stroke="black" points="825.98,-171.76 829.48,-181.76 832.98,-171.76 825.98,-171.76"/>
</g>
<!-- SidebarComponent  -->
<g id="node13" class="node">
<title>SidebarComponent </title>
<polygon fill="#fb8072" stroke="black" points="778.6,-217.8 651.4,-217.8 651.4,-181.8 778.6,-181.8 778.6,-217.8"/>
<text text-anchor="middle" x="715" y="-195.6" font-family="Times,serif" font-size="14.00">SidebarComponent </text>
</g>
<!-- ComponentsModule&#45;&gt;SidebarComponent  -->
<g id="edge11" class="edge">
<title>ComponentsModule&#45;&gt;SidebarComponent </title>
<path fill="none" stroke="black" stroke-dasharray="5,2" d="M715,-150.02C715,-150.02 715,-171.53 715,-171.53"/>
<polygon fill="black" stroke="black" points="711.5,-171.53 715,-181.53 718.5,-171.53 711.5,-171.53"/>
</g>
<!-- TitleComponent  -->
<g id="node14" class="node">
<title>TitleComponent </title>
<polygon fill="#fb8072" stroke="black" points="633.77,-217.8 522.23,-217.8 522.23,-181.8 633.77,-181.8 633.77,-217.8"/>
<text text-anchor="middle" x="578" y="-195.6" font-family="Times,serif" font-size="14.00">TitleComponent </text>
</g>
<!-- ComponentsModule&#45;&gt;TitleComponent  -->
<g id="edge12" class="edge">
<title>ComponentsModule&#45;&gt;TitleComponent </title>
<path fill="none" stroke="black" stroke-dasharray="5,2" d="M649.73,-142.8C625.04,-142.8 602.79,-142.8 602.79,-142.8 602.79,-142.8 602.79,-171.76 602.79,-171.76"/>
<polygon fill="black" stroke="black" points="599.29,-171.76 602.79,-181.76 606.29,-171.76 599.29,-171.76"/>
</g>
<!-- TopbarComponent  -->
<g id="node15" class="node">
<title>TopbarComponent </title>
<polygon fill="#fb8072" stroke="black" points="504.76,-217.8 379.24,-217.8 379.24,-181.8 504.76,-181.8 504.76,-217.8"/>
<text text-anchor="middle" x="442" y="-195.6" font-family="Times,serif" font-size="14.00">TopbarComponent </text>
</g>
<!-- ComponentsModule&#45;&gt;TopbarComponent  -->
<g id="edge13" class="edge">
<title>ComponentsModule&#45;&gt;TopbarComponent </title>
<path fill="none" stroke="black" stroke-dasharray="5,2" d="M649.52,-135.8C578.57,-135.8 475.37,-135.8 475.37,-135.8 475.37,-135.8 475.37,-171.63 475.37,-171.63"/>
<polygon fill="black" stroke="black" points="471.87,-171.63 475.37,-181.63 478.87,-171.63 471.87,-171.63"/>
</g>
<!-- DefaultComponent -->
<g id="node16" class="node">
<title>DefaultComponent</title>
<polygon fill="#ffffb3" stroke="black" points="1308.81,-84.8 1185.19,-84.8 1185.19,-48.8 1308.81,-48.8 1308.81,-84.8"/>
<text text-anchor="middle" x="1247" y="-62.6" font-family="Times,serif" font-size="14.00">DefaultComponent</text>
</g>
<!-- DefaultModule -->
<g id="node17" class="node">
<title>DefaultModule</title>
<polygon fill="#8dd3c7" stroke="black" points="1297.53,-149.8 1294.53,-153.8 1273.53,-153.8 1270.53,-149.8 1196.47,-149.8 1196.47,-113.8 1297.53,-113.8 1297.53,-149.8"/>
<text text-anchor="middle" x="1247" y="-127.6" font-family="Times,serif" font-size="14.00">DefaultModule</text>
</g>
<!-- DefaultComponent&#45;&gt;DefaultModule -->
<g id="edge14" class="edge">
<title>DefaultComponent&#45;&gt;DefaultModule</title>
<path fill="none" stroke="black" d="M1247,-84.91C1247,-84.91 1247,-103.79 1247,-103.79"/>
<polygon fill="black" stroke="black" points="1243.5,-103.79 1247,-113.79 1250.5,-103.79 1243.5,-103.79"/>
</g>
<!-- DefaultComponent  -->
<g id="node18" class="node">
<title>DefaultComponent </title>
<polygon fill="#fb8072" stroke="black" points="1310.31,-217.8 1183.69,-217.8 1183.69,-181.8 1310.31,-181.8 1310.31,-217.8"/>
<text text-anchor="middle" x="1247" y="-195.6" font-family="Times,serif" font-size="14.00">DefaultComponent </text>
</g>
<!-- DefaultModule&#45;&gt;DefaultComponent  -->
<g id="edge15" class="edge">
<title>DefaultModule&#45;&gt;DefaultComponent </title>
<path fill="none" stroke="black" stroke-dasharray="5,2" d="M1247,-150.02C1247,-150.02 1247,-171.53 1247,-171.53"/>
<polygon fill="black" stroke="black" points="1243.5,-171.53 1247,-181.53 1250.5,-171.53 1243.5,-171.53"/>
</g>
<!-- LayoutsModule -->
<g id="node27" class="node">
<title>LayoutsModule</title>
<polygon fill="#8dd3c7" stroke="black" points="1455.16,-217.8 1452.16,-221.8 1431.16,-221.8 1428.16,-217.8 1350.84,-217.8 1350.84,-181.8 1455.16,-181.8 1455.16,-217.8"/>
<text text-anchor="middle" x="1403" y="-195.6" font-family="Times,serif" font-size="14.00">LayoutsModule</text>
</g>
<!-- DefaultModule&#45;&gt;LayoutsModule -->
<g id="edge22" class="edge">
<title>DefaultModule&#45;&gt;LayoutsModule</title>
<path fill="none" stroke="black" d="M1297.65,-137.8C1343.2,-137.8 1403,-137.8 1403,-137.8 1403,-137.8 1403,-171.53 1403,-171.53"/>
<polygon fill="black" stroke="black" points="1399.5,-171.53 1403,-181.53 1406.5,-171.53 1399.5,-171.53"/>
</g>
<!-- FranchiseeComponent -->
<g id="node19" class="node">
<title>FranchiseeComponent</title>
<polygon fill="#ffffb3" stroke="black" points="1689.97,-84.8 1548.03,-84.8 1548.03,-48.8 1689.97,-48.8 1689.97,-84.8"/>
<text text-anchor="middle" x="1619" y="-62.6" font-family="Times,serif" font-size="14.00">FranchiseeComponent</text>
</g>
<!-- FranchiseeModule -->
<g id="node21" class="node">
<title>FranchiseeModule</title>
<polygon fill="#8dd3c7" stroke="black" points="1767.19,-149.8 1764.19,-153.8 1743.19,-153.8 1740.19,-149.8 1646.81,-149.8 1646.81,-113.8 1767.19,-113.8 1767.19,-149.8"/>
<text text-anchor="middle" x="1707" y="-127.6" font-family="Times,serif" font-size="14.00">FranchiseeModule</text>
</g>
<!-- FranchiseeComponent&#45;&gt;FranchiseeModule -->
<g id="edge16" class="edge">
<title>FranchiseeComponent&#45;&gt;FranchiseeModule</title>
<path fill="none" stroke="black" d="M1668.44,-84.91C1668.44,-84.91 1668.44,-103.79 1668.44,-103.79"/>
<polygon fill="black" stroke="black" points="1664.94,-103.79 1668.44,-113.79 1671.94,-103.79 1664.94,-103.79"/>
</g>
<!-- FranchiseeDialogComponent -->
<g id="node20" class="node">
<title>FranchiseeDialogComponent</title>
<polygon fill="#ffffb3" stroke="black" points="1530.08,-84.8 1349.92,-84.8 1349.92,-48.8 1530.08,-48.8 1530.08,-84.8"/>
<text text-anchor="middle" x="1440" y="-62.6" font-family="Times,serif" font-size="14.00">FranchiseeDialogComponent</text>
</g>
<!-- FranchiseeDialogComponent&#45;&gt;FranchiseeModule -->
<g id="edge17" class="edge">
<title>FranchiseeDialogComponent&#45;&gt;FranchiseeModule</title>
<path fill="none" stroke="black" d="M1513.05,-84.82C1513.05,-102.17 1513.05,-125.8 1513.05,-125.8 1513.05,-125.8 1636.7,-125.8 1636.7,-125.8"/>
<polygon fill="black" stroke="black" points="1636.7,-129.3 1646.7,-125.8 1636.7,-122.3 1636.7,-129.3"/>
</g>
<!-- ApiTokenInterceptorService -->
<g id="node22" class="node">
<title>ApiTokenInterceptorService</title>
<ellipse fill="#fdb462" stroke="black" cx="2017" cy="-66.8" rx="121.51" ry="18"/>
<text text-anchor="middle" x="2017" y="-62.6" font-family="Times,serif" font-size="14.00">ApiTokenInterceptorService</text>
</g>
<!-- ApiTokenInterceptorService&#45;&gt;FranchiseeModule -->
<g id="edge18" class="edge">
<title>ApiTokenInterceptorService&#45;&gt;FranchiseeModule</title>
<path fill="none" stroke="black" d="M2041.3,-84.5C2041.3,-101.88 2041.3,-125.8 2041.3,-125.8 2041.3,-125.8 1777.15,-125.8 1777.15,-125.8"/>
<polygon fill="black" stroke="black" points="1777.15,-122.3 1767.15,-125.8 1777.15,-129.3 1777.15,-122.3"/>
</g>
<!-- ProfileModule -->
<g id="node33" class="node">
<title>ProfileModule</title>
<polygon fill="#8dd3c7" stroke="black" points="2293.66,-149.8 2290.66,-153.8 2269.66,-153.8 2266.66,-149.8 2196.34,-149.8 2196.34,-113.8 2293.66,-113.8 2293.66,-149.8"/>
<text text-anchor="middle" x="2245" y="-127.6" font-family="Times,serif" font-size="14.00">ProfileModule</text>
</g>
<!-- ApiTokenInterceptorService&#45;&gt;ProfileModule -->
<g id="edge28" class="edge">
<title>ApiTokenInterceptorService&#45;&gt;ProfileModule</title>
<path fill="none" stroke="black" d="M2089.9,-81.51C2089.9,-102.31 2089.9,-137.8 2089.9,-137.8 2089.9,-137.8 2185.93,-137.8 2185.93,-137.8"/>
<polygon fill="black" stroke="black" points="2185.93,-141.3 2195.93,-137.8 2185.93,-134.3 2185.93,-141.3"/>
</g>
<!-- RecipeManagementModule -->
<g id="node40" class="node">
<title>RecipeManagementModule</title>
<polygon fill="#8dd3c7" stroke="black" points="2993.5,-149.8 2990.5,-153.8 2969.5,-153.8 2966.5,-149.8 2822.5,-149.8 2822.5,-113.8 2993.5,-113.8 2993.5,-149.8"/>
<text text-anchor="middle" x="2908" y="-127.6" font-family="Times,serif" font-size="14.00">RecipeManagementModule</text>
</g>
<!-- ApiTokenInterceptorService&#45;&gt;RecipeManagementModule -->
<g id="edge35" class="edge">
<title>ApiTokenInterceptorService&#45;&gt;RecipeManagementModule</title>
<path fill="none" stroke="black" d="M1944.1,-81.38C1944.1,-92.1 1944.1,-104.8 1944.1,-104.8 1944.1,-104.8 2827.69,-104.8 2827.69,-104.8 2827.69,-104.8 2827.69,-105.68 2827.69,-105.68"/>
<polygon fill="black" stroke="black" points="2824.19,-103.64 2827.69,-113.64 2831.19,-103.64 2824.19,-103.64"/>
</g>
<!-- UsersModule -->
<g id="node43" class="node">
<title>UsersModule</title>
<polygon fill="#8dd3c7" stroke="black" points="3571.94,-149.8 3568.94,-153.8 3547.94,-153.8 3544.94,-149.8 3480.06,-149.8 3480.06,-113.8 3571.94,-113.8 3571.94,-149.8"/>
<text text-anchor="middle" x="3526" y="-127.6" font-family="Times,serif" font-size="14.00">UsersModule</text>
</g>
<!-- ApiTokenInterceptorService&#45;&gt;UsersModule -->
<g id="edge38" class="edge">
<title>ApiTokenInterceptorService&#45;&gt;UsersModule</title>
<path fill="none" stroke="black" d="M1992.7,-84.69C1992.7,-90.18 1992.7,-94.8 1992.7,-94.8 1992.7,-94.8 3510.76,-94.8 3510.76,-94.8 3510.76,-94.8 3510.76,-103.73 3510.76,-103.73"/>
<polygon fill="black" stroke="black" points="3507.26,-103.73 3510.76,-113.73 3514.26,-103.73 3507.26,-103.73"/>
</g>
<!-- FranchiseeService -->
<g id="node23" class="node">
<title>FranchiseeService</title>
<ellipse fill="#fdb462" stroke="black" cx="1796" cy="-66.8" rx="81.65" ry="18"/>
<text text-anchor="middle" x="1796" y="-62.6" font-family="Times,serif" font-size="14.00">FranchiseeService</text>
</g>
<!-- FranchiseeService&#45;&gt;FranchiseeModule -->
<g id="edge19" class="edge">
<title>FranchiseeService&#45;&gt;FranchiseeModule</title>
<path fill="none" stroke="black" d="M1740.64,-80.27C1740.64,-80.27 1740.64,-103.66 1740.64,-103.66"/>
<polygon fill="black" stroke="black" points="1737.14,-103.66 1740.64,-113.66 1744.14,-103.66 1737.14,-103.66"/>
</g>
<!-- HomeComponent -->
<g id="node24" class="node">
<title>HomeComponent</title>
<polygon fill="#ffffb3" stroke="black" points="3883.55,-84.8 3768.45,-84.8 3768.45,-48.8 3883.55,-48.8 3883.55,-84.8"/>
<text text-anchor="middle" x="3826" y="-62.6" font-family="Times,serif" font-size="14.00">HomeComponent</text>
</g>
<!-- HomeModule -->
<g id="node25" class="node">
<title>HomeModule</title>
<polygon fill="#8dd3c7" stroke="black" points="3872.77,-149.8 3869.77,-153.8 3848.77,-153.8 3845.77,-149.8 3779.23,-149.8 3779.23,-113.8 3872.77,-113.8 3872.77,-149.8"/>
<text text-anchor="middle" x="3826" y="-127.6" font-family="Times,serif" font-size="14.00">HomeModule</text>
</g>
<!-- HomeComponent&#45;&gt;HomeModule -->
<g id="edge20" class="edge">
<title>HomeComponent&#45;&gt;HomeModule</title>
<path fill="none" stroke="black" d="M3826,-84.91C3826,-84.91 3826,-103.79 3826,-103.79"/>
<polygon fill="black" stroke="black" points="3822.5,-103.79 3826,-113.79 3829.5,-103.79 3822.5,-103.79"/>
</g>
<!-- HomeComponent  -->
<g id="node26" class="node">
<title>HomeComponent </title>
<polygon fill="#fb8072" stroke="black" points="3885.54,-217.8 3766.46,-217.8 3766.46,-181.8 3885.54,-181.8 3885.54,-217.8"/>
<text text-anchor="middle" x="3826" y="-195.6" font-family="Times,serif" font-size="14.00">HomeComponent </text>
</g>
<!-- HomeModule&#45;&gt;HomeComponent  -->
<g id="edge21" class="edge">
<title>HomeModule&#45;&gt;HomeComponent </title>
<path fill="none" stroke="black" stroke-dasharray="5,2" d="M3826,-150.02C3826,-150.02 3826,-171.53 3826,-171.53"/>
<polygon fill="black" stroke="black" points="3822.5,-171.53 3826,-181.53 3829.5,-171.53 3822.5,-171.53"/>
</g>
<!-- DefaultModule  -->
<g id="node28" class="node">
<title>DefaultModule </title>
<polygon fill="#fb8072" stroke="black" points="1455.53,-285.8 1350.47,-285.8 1350.47,-249.8 1455.53,-249.8 1455.53,-285.8"/>
<text text-anchor="middle" x="1403" y="-263.6" font-family="Times,serif" font-size="14.00">DefaultModule </text>
</g>
<!-- LayoutsModule&#45;&gt;DefaultModule  -->
<g id="edge23" class="edge">
<title>LayoutsModule&#45;&gt;DefaultModule </title>
<path fill="none" stroke="black" stroke-dasharray="5,2" d="M1403,-218.02C1403,-218.02 1403,-239.53 1403,-239.53"/>
<polygon fill="black" stroke="black" points="1399.5,-239.53 1403,-249.53 1406.5,-239.53 1399.5,-239.53"/>
</g>
<!-- PrincipalModule -->
<g id="node31" class="node">
<title>PrincipalModule</title>
<polygon fill="#8dd3c7" stroke="black" points="1617.1,-285.8 1614.1,-289.8 1593.1,-289.8 1590.1,-285.8 1506.9,-285.8 1506.9,-249.8 1617.1,-249.8 1617.1,-285.8"/>
<text text-anchor="middle" x="1562" y="-263.6" font-family="Times,serif" font-size="14.00">PrincipalModule</text>
</g>
<!-- LayoutsModule&#45;&gt;PrincipalModule -->
<g id="edge26" class="edge">
<title>LayoutsModule&#45;&gt;PrincipalModule</title>
<path fill="none" stroke="black" d="M1455.51,-199.8C1466.99,-199.8 1475.79,-199.8 1475.79,-199.8 1475.79,-199.8 1475.79,-267.8 1475.79,-267.8 1475.79,-267.8 1496.91,-267.8 1496.91,-267.8"/>
<polygon fill="black" stroke="black" points="1496.91,-271.3 1506.91,-267.8 1496.91,-264.3 1496.91,-271.3"/>
</g>
<!-- PageNotFoundComponent -->
<g id="node29" class="node">
<title>PageNotFoundComponent</title>
<polygon fill="#ffffb3" stroke="black" points="1811.83,-217.8 1646.17,-217.8 1646.17,-181.8 1811.83,-181.8 1811.83,-217.8"/>
<text text-anchor="middle" x="1729" y="-195.6" font-family="Times,serif" font-size="14.00">PageNotFoundComponent</text>
</g>
<!-- PageNotFoundComponent&#45;&gt;PrincipalModule -->
<g id="edge24" class="edge">
<title>PageNotFoundComponent&#45;&gt;PrincipalModule</title>
<path fill="none" stroke="black" d="M1729,-218.02C1729,-238.17 1729,-267.8 1729,-267.8 1729,-267.8 1627.14,-267.8 1627.14,-267.8"/>
<polygon fill="black" stroke="black" points="1627.14,-264.3 1617.14,-267.8 1627.14,-271.3 1627.14,-264.3"/>
</g>
<!-- PrincipalComponent -->
<g id="node30" class="node">
<title>PrincipalComponent</title>
<polygon fill="#ffffb3" stroke="black" points="1627.88,-217.8 1496.12,-217.8 1496.12,-181.8 1627.88,-181.8 1627.88,-217.8"/>
<text text-anchor="middle" x="1562" y="-195.6" font-family="Times,serif" font-size="14.00">PrincipalComponent</text>
</g>
<!-- PrincipalComponent&#45;&gt;PrincipalModule -->
<g id="edge25" class="edge">
<title>PrincipalComponent&#45;&gt;PrincipalModule</title>
<path fill="none" stroke="black" d="M1562,-218.02C1562,-218.02 1562,-239.53 1562,-239.53"/>
<polygon fill="black" stroke="black" points="1558.5,-239.53 1562,-249.53 1565.5,-239.53 1558.5,-239.53"/>
</g>
<!-- ProfileComponent -->
<g id="node32" class="node">
<title>ProfileComponent</title>
<polygon fill="#ffffb3" stroke="black" points="2454.94,-84.8 2335.06,-84.8 2335.06,-48.8 2454.94,-48.8 2454.94,-84.8"/>
<text text-anchor="middle" x="2395" y="-62.6" font-family="Times,serif" font-size="14.00">ProfileComponent</text>
</g>
<!-- ProfileComponent&#45;&gt;ProfileModule -->
<g id="edge27" class="edge">
<title>ProfileComponent&#45;&gt;ProfileModule</title>
<path fill="none" stroke="black" d="M2395,-85.08C2395,-106.12 2395,-137.8 2395,-137.8 2395,-137.8 2303.7,-137.8 2303.7,-137.8"/>
<polygon fill="black" stroke="black" points="2303.7,-134.3 2293.7,-137.8 2303.7,-141.3 2303.7,-134.3"/>
</g>
<!-- ProfileService -->
<g id="node34" class="node">
<title>ProfileService</title>
<ellipse fill="#fdb462" stroke="black" cx="2245" cy="-66.8" rx="66.05" ry="18"/>
<text text-anchor="middle" x="2245" y="-62.6" font-family="Times,serif" font-size="14.00">ProfileService</text>
</g>
<!-- ProfileService&#45;&gt;ProfileModule -->
<g id="edge29" class="edge">
<title>ProfileService&#45;&gt;ProfileModule</title>
<path fill="none" stroke="black" d="M2245,-84.91C2245,-84.91 2245,-103.79 2245,-103.79"/>
<polygon fill="black" stroke="black" points="2241.5,-103.79 2245,-113.79 2248.5,-103.79 2241.5,-103.79"/>
</g>
<!-- IngredientComponent -->
<g id="node35" class="node">
<title>IngredientComponent</title>
<polygon fill="#ffffb3" stroke="black" points="2977.36,-84.8 2838.64,-84.8 2838.64,-48.8 2977.36,-48.8 2977.36,-84.8"/>
<text text-anchor="middle" x="2908" y="-62.6" font-family="Times,serif" font-size="14.00">IngredientComponent</text>
</g>
<!-- IngredientComponent&#45;&gt;RecipeManagementModule -->
<g id="edge30" class="edge">
<title>IngredientComponent&#45;&gt;RecipeManagementModule</title>
<path fill="none" stroke="black" d="M2908,-84.91C2908,-84.91 2908,-103.79 2908,-103.79"/>
<polygon fill="black" stroke="black" points="2904.5,-103.79 2908,-113.79 2911.5,-103.79 2904.5,-103.79"/>
</g>
<!-- IngredientTypeComponent -->
<g id="node36" class="node">
<title>IngredientTypeComponent</title>
<polygon fill="#ffffb3" stroke="black" points="2820.63,-84.8 2653.37,-84.8 2653.37,-48.8 2820.63,-48.8 2820.63,-84.8"/>
<text text-anchor="middle" x="2737" y="-62.6" font-family="Times,serif" font-size="14.00">IngredientTypeComponent</text>
</g>
<!-- IngredientTypeComponent&#45;&gt;RecipeManagementModule -->
<g id="edge31" class="edge">
<title>IngredientTypeComponent&#45;&gt;RecipeManagementModule</title>
<path fill="none" stroke="black" d="M2820.95,-66.8C2828.36,-66.8 2833.13,-66.8 2833.13,-66.8 2833.13,-66.8 2833.13,-103.69 2833.13,-103.69"/>
<polygon fill="black" stroke="black" points="2829.63,-103.69 2833.13,-113.69 2836.63,-103.69 2829.63,-103.69"/>
</g>
<!-- RecipeDialogComponent -->
<g id="node37" class="node">
<title>RecipeDialogComponent</title>
<polygon fill="#ffffb3" stroke="black" points="3424.3,-84.8 3265.7,-84.8 3265.7,-48.8 3424.3,-48.8 3424.3,-84.8"/>
<text text-anchor="middle" x="3345" y="-62.6" font-family="Times,serif" font-size="14.00">RecipeDialogComponent</text>
</g>
<!-- RecipeDialogComponent&#45;&gt;RecipeManagementModule -->
<g id="edge32" class="edge">
<title>RecipeDialogComponent&#45;&gt;RecipeManagementModule</title>
<path fill="none" stroke="black" d="M3345,-85.08C3345,-106.12 3345,-137.8 3345,-137.8 3345,-137.8 3003.56,-137.8 3003.56,-137.8"/>
<polygon fill="black" stroke="black" points="3003.56,-134.3 2993.56,-137.8 3003.56,-141.3 3003.56,-134.3"/>
</g>
<!-- RecipesComponent -->
<g id="node38" class="node">
<title>RecipesComponent</title>
<polygon fill="#ffffb3" stroke="black" points="3247.65,-84.8 3122.35,-84.8 3122.35,-48.8 3247.65,-48.8 3247.65,-84.8"/>
<text text-anchor="middle" x="3185" y="-62.6" font-family="Times,serif" font-size="14.00">RecipesComponent</text>
</g>
<!-- RecipesComponent&#45;&gt;RecipeManagementModule -->
<g id="edge33" class="edge">
<title>RecipesComponent&#45;&gt;RecipeManagementModule</title>
<path fill="none" stroke="black" d="M3185,-84.82C3185,-102.17 3185,-125.8 3185,-125.8 3185,-125.8 3003.75,-125.8 3003.75,-125.8"/>
<polygon fill="black" stroke="black" points="3003.75,-122.3 2993.75,-125.8 3003.75,-129.3 3003.75,-122.3"/>
</g>
<!-- TabsComponent -->
<g id="node39" class="node">
<title>TabsComponent</title>
<polygon fill="#ffffb3" stroke="black" points="3104.05,-84.8 2995.95,-84.8 2995.95,-48.8 3104.05,-48.8 3104.05,-84.8"/>
<text text-anchor="middle" x="3050" y="-62.6" font-family="Times,serif" font-size="14.00">TabsComponent</text>
</g>
<!-- TabsComponent&#45;&gt;RecipeManagementModule -->
<g id="edge34" class="edge">
<title>TabsComponent&#45;&gt;RecipeManagementModule</title>
<path fill="none" stroke="black" d="M2995.94,-66.8C2989.74,-66.8 2985.59,-66.8 2985.59,-66.8 2985.59,-66.8 2985.59,-103.69 2985.59,-103.69"/>
<polygon fill="black" stroke="black" points="2982.09,-103.69 2985.59,-113.69 2989.09,-103.69 2982.09,-103.69"/>
</g>
<!-- RecipeService -->
<g id="node41" class="node">
<title>RecipeService</title>
<ellipse fill="#fdb462" stroke="black" cx="2562" cy="-66.8" rx="66.61" ry="18"/>
<text text-anchor="middle" x="2562" y="-62.6" font-family="Times,serif" font-size="14.00">RecipeService</text>
</g>
<!-- RecipeService&#45;&gt;RecipeManagementModule -->
<g id="edge36" class="edge">
<title>RecipeService&#45;&gt;RecipeManagementModule</title>
<path fill="none" stroke="black" d="M2562,-84.82C2562,-102.17 2562,-125.8 2562,-125.8 2562,-125.8 2812.47,-125.8 2812.47,-125.8"/>
<polygon fill="black" stroke="black" points="2812.47,-129.3 2822.47,-125.8 2812.47,-122.3 2812.47,-129.3"/>
</g>
<!-- UsersComponent -->
<g id="node42" class="node">
<title>UsersComponent</title>
<polygon fill="#ffffb3" stroke="black" points="3725.71,-84.8 3612.29,-84.8 3612.29,-48.8 3725.71,-48.8 3725.71,-84.8"/>
<text text-anchor="middle" x="3669" y="-62.6" font-family="Times,serif" font-size="14.00">UsersComponent</text>
</g>
<!-- UsersComponent&#45;&gt;UsersModule -->
<g id="edge37" class="edge">
<title>UsersComponent&#45;&gt;UsersModule</title>
<path fill="none" stroke="black" d="M3669,-84.91C3669,-104.14 3669,-131.8 3669,-131.8 3669,-131.8 3582.03,-131.8 3582.03,-131.8"/>
<polygon fill="black" stroke="black" points="3582.03,-128.3 3572.03,-131.8 3582.03,-135.3 3582.03,-128.3"/>
</g>
<!-- UsersService -->
<g id="node44" class="node">
<title>UsersService</title>
<ellipse fill="#fdb462" stroke="black" cx="3526" cy="-66.8" rx="61.97" ry="18"/>
<text text-anchor="middle" x="3526" y="-62.6" font-family="Times,serif" font-size="14.00">UsersService</text>
</g>
<!-- UsersService&#45;&gt;UsersModule -->
<g id="edge39" class="edge">
<title>UsersService&#45;&gt;UsersModule</title>
<path fill="none" stroke="black" d="M3541.24,-84.56C3541.24,-84.56 3541.24,-103.61 3541.24,-103.61"/>
<polygon fill="black" stroke="black" points="3537.74,-103.61 3541.24,-113.61 3544.74,-103.61 3537.74,-103.61"/>
</g>
</g>
</svg>
