<?xml version="1.0" encoding="UTF-8" standalone="no"?>
<!DOCTYPE svg PUBLIC "-//W3C//DTD SVG 1.1//EN"
 "http://www.w3.org/Graphics/SVG/1.1/DTD/svg11.dtd">
<!-- Generated by graphviz version 2.47.3 (20210619.1520)
 -->
<!-- Title: dependencies Pages: 1 -->
<svg width="626pt" height="247pt"
 viewBox="0.00 0.00 626.00 246.80" xmlns="http://www.w3.org/2000/svg" xmlns:xlink="http://www.w3.org/1999/xlink">
<g id="graph0" class="graph" transform="scale(1 1) rotate(0) translate(4 242.8)">
<title>dependencies</title>
<polygon fill="white" stroke="transparent" points="-4,4 -4,-242.8 622,-242.8 622,4 -4,4"/>
<text text-anchor="middle" x="309" y="-8.2" font-family="sans-serif" font-size="14.00">dependencies</text>
<g id="clust7" class="cluster">
<title>cluster_AuthModule</title>
<polygon fill="none" stroke="black" stroke-dasharray="1,5" points="8,-32.8 8,-157.8 154,-157.8 154,-32.8 8,-32.8"/>
</g>
<g id="clust8" class="cluster">
<title>cluster_AuthModule_declarations</title>
<polygon fill="none" stroke="black" points="16,-40.8 16,-92.8 146,-92.8 146,-40.8 16,-40.8"/>
</g>
<g id="clust14" class="cluster">
<title>cluster_BackofficeModule</title>
<polygon fill="none" stroke="black" stroke-dasharray="1,5" points="162,-32.8 162,-157.8 310,-157.8 310,-32.8 162,-32.8"/>
</g>
<g id="clust15" class="cluster">
<title>cluster_BackofficeModule_declarations</title>
<polygon fill="none" stroke="black" points="170,-40.8 170,-92.8 302,-92.8 302,-40.8 170,-40.8"/>
</g>
<g id="clust21" class="cluster">
<title>cluster_SharedModule</title>
<polygon fill="none" stroke="black" stroke-dasharray="1,5" points="318,-32.8 318,-230.8 610,-230.8 610,-32.8 318,-32.8"/>
</g>
<g id="clust22" class="cluster">
<title>cluster_SharedModule_declarations</title>
<polygon fill="none" stroke="black" points="326,-40.8 326,-92.8 602,-92.8 602,-40.8 326,-40.8"/>
</g>
<g id="clust26" class="cluster">
<title>cluster_SharedModule_exports</title>
<polygon fill="none" stroke="black" points="395,-170.8 395,-222.8 533,-222.8 533,-170.8 395,-170.8"/>
</g>
<!-- LoginComponent -->
<g id="node1" class="node">
<title>LoginComponent</title>
<polygon fill="#ffffb3" stroke="black" points="138.28,-84.8 23.72,-84.8 23.72,-48.8 138.28,-48.8 138.28,-84.8"/>
<text text-anchor="middle" x="81" y="-62.6" font-family="Times,serif" font-size="14.00">LoginComponent</text>
</g>
<!-- AuthModule -->
<g id="node2" class="node">
<title>AuthModule</title>
<polygon fill="#8dd3c7" stroke="black" points="124.55,-149.8 121.55,-153.8 100.55,-153.8 97.55,-149.8 37.45,-149.8 37.45,-113.8 124.55,-113.8 124.55,-149.8"/>
<text text-anchor="middle" x="81" y="-127.6" font-family="Times,serif" font-size="14.00">AuthModule</text>
</g>
<!-- LoginComponent&#45;&gt;AuthModule -->
<g id="edge1" class="edge">
<title>LoginComponent&#45;&gt;AuthModule</title>
<path fill="none" stroke="black" d="M81,-84.91C81,-84.91 81,-103.79 81,-103.79"/>
<polygon fill="black" stroke="black" points="77.5,-103.79 81,-113.79 84.5,-103.79 77.5,-103.79"/>
</g>
<!-- HomeComponent -->
<g id="node3" class="node">
<title>HomeComponent</title>
<polygon fill="#ffffb3" stroke="black" points="293.55,-84.8 178.45,-84.8 178.45,-48.8 293.55,-48.8 293.55,-84.8"/>
<text text-anchor="middle" x="236" y="-62.6" font-family="Times,serif" font-size="14.00">HomeComponent</text>
</g>
<!-- BackofficeModule -->
<g id="node4" class="node">
<title>BackofficeModule</title>
<polygon fill="#8dd3c7" stroke="black" points="296.46,-149.8 293.46,-153.8 272.46,-153.8 269.46,-149.8 175.54,-149.8 175.54,-113.8 296.46,-113.8 296.46,-149.8"/>
<text text-anchor="middle" x="236" y="-127.6" font-family="Times,serif" font-size="14.00">BackofficeModule</text>
</g>
<!-- HomeComponent&#45;&gt;BackofficeModule -->
<g id="edge2" class="edge">
<title>HomeComponent&#45;&gt;BackofficeModule</title>
<path fill="none" stroke="black" d="M236,-84.91C236,-84.91 236,-103.79 236,-103.79"/>
<polygon fill="black" stroke="black" points="232.5,-103.79 236,-113.79 239.5,-103.79 232.5,-103.79"/>
</g>
<!-- FooterComponent -->
<g id="node5" class="node">
<title>FooterComponent</title>
<polygon fill="#ffffb3" stroke="black" points="593.88,-84.8 476.12,-84.8 476.12,-48.8 593.88,-48.8 593.88,-84.8"/>
<text text-anchor="middle" x="535" y="-62.6" font-family="Times,serif" font-size="14.00">FooterComponent</text>
</g>
<!-- SharedModule -->
<g id="node7" class="node">
<title>SharedModule</title>
<polygon fill="#8dd3c7" stroke="black" points="513.42,-149.8 510.42,-153.8 489.42,-153.8 486.42,-149.8 414.58,-149.8 414.58,-113.8 513.42,-113.8 513.42,-149.8"/>
<text text-anchor="middle" x="464" y="-127.6" font-family="Times,serif" font-size="14.00">SharedModule</text>
</g>
<!-- FooterComponent&#45;&gt;SharedModule -->
<g id="edge3" class="edge">
<title>FooterComponent&#45;&gt;SharedModule</title>
<path fill="none" stroke="black" d="M494.64,-84.91C494.64,-84.91 494.64,-103.79 494.64,-103.79"/>
<polygon fill="black" stroke="black" points="491.14,-103.79 494.64,-113.79 498.14,-103.79 491.14,-103.79"/>
</g>
<!-- SidebarComponent -->
<g id="node6" class="node">
<title>SidebarComponent</title>
<polygon fill="#ffffb3" stroke="black" points="458.1,-84.8 333.9,-84.8 333.9,-48.8 458.1,-48.8 458.1,-84.8"/>
<text text-anchor="middle" x="396" y="-62.6" font-family="Times,serif" font-size="14.00">SidebarComponent</text>
</g>
<!-- SidebarComponent&#45;&gt;SharedModule -->
<g id="edge4" class="edge">
<title>SidebarComponent&#45;&gt;SharedModule</title>
<path fill="none" stroke="black" d="M436.42,-84.91C436.42,-84.91 436.42,-103.79 436.42,-103.79"/>
<polygon fill="black" stroke="black" points="432.92,-103.79 436.42,-113.79 439.92,-103.79 432.92,-103.79"/>
</g>
<!-- FooterComponent  -->
<g id="node8" class="node">
<title>FooterComponent </title>
<polygon fill="#fb8072" stroke="black" points="524.88,-214.8 403.12,-214.8 403.12,-178.8 524.88,-178.8 524.88,-214.8"/>
<text text-anchor="middle" x="464" y="-192.6" font-family="Times,serif" font-size="14.00">FooterComponent </text>
</g>
<!-- SharedModule&#45;&gt;FooterComponent  -->
<g id="edge5" class="edge">
<title>SharedModule&#45;&gt;FooterComponent </title>
<path fill="none" stroke="black" stroke-dasharray="5,2" d="M464,-149.91C464,-149.91 464,-168.79 464,-168.79"/>
<polygon fill="black" stroke="black" points="460.5,-168.79 464,-178.79 467.5,-168.79 460.5,-168.79"/>
</g>
</g>
</svg>
